<svg width="103" height="26" viewBox="0 0 103 26" fill="none" xmlns="http://www.w3.org/2000/svg">
<path d="M6.16475 17.628C7.02875 17.628 7.70075 17.4787 8.18075 17.18C8.67142 16.8813 8.91675 16.492 8.91675 16.012C8.91675 15.788 8.85808 15.612 8.74075 15.484C8.62342 15.3453 8.41542 15.276 8.11675 15.276H5.36475V12.22C5.36475 11.804 5.42875 11.4253 5.55675 11.084C5.68475 10.732 5.86608 10.4333 6.10075 10.188C6.34608 9.932 6.63942 9.73467 6.98075 9.596C7.32208 9.45733 7.70608 9.388 8.13275 9.388H9.97275L10.0528 11.148H8.10075C7.79142 11.148 7.53008 11.244 7.31675 11.436C7.10342 11.6173 6.99675 11.8947 6.99675 12.268V13.532H8.40475C8.82075 13.532 9.16208 13.5853 9.42875 13.692C9.70608 13.7987 9.92475 13.948 10.0848 14.14C10.2448 14.332 10.3568 14.5613 10.4208 14.828C10.4954 15.0947 10.5328 15.3933 10.5328 15.724C10.5328 16.236 10.4261 16.716 10.2128 17.164C10.0101 17.612 9.72208 17.996 9.34875 18.316C8.97542 18.6467 8.53275 18.9027 8.02075 19.084C7.51942 19.276 6.97542 19.372 6.38875 19.372H4.99675C3.80208 19.372 2.87408 19.004 2.21275 18.268C1.55142 17.532 1.22075 16.524 1.22075 15.244V12.38H2.83675V15.18C2.83675 15.5533 2.87942 15.8893 2.96475 16.188C3.05008 16.4867 3.18342 16.7427 3.36475 16.956C3.55675 17.1693 3.80208 17.3347 4.10075 17.452C4.41008 17.5693 4.78342 17.628 5.22075 17.628H6.16475ZM10.7181 17.628H10.9581C11.4061 17.628 11.7901 17.5587 12.1101 17.42C12.4301 17.292 12.6861 17.116 12.8781 16.892C13.0808 16.668 13.2301 16.412 13.3261 16.124C13.4221 15.836 13.4701 15.5427 13.4701 15.244V10.812H15.1021V15.244C15.1021 15.82 15.0008 16.3587 14.7981 16.86C14.6061 17.3613 14.3341 17.7987 13.9821 18.172C13.6408 18.5453 13.2301 18.8387 12.7501 19.052C12.2808 19.2653 11.7741 19.372 11.2301 19.372H10.8141L10.7181 17.628ZM16.9615 5.58H18.5935V15.5H16.9615V5.58ZM22.585 15.244C22.585 15.82 22.489 16.3587 22.297 16.86C22.105 17.3613 21.8383 17.7987 21.497 18.172C21.1663 18.5453 20.7663 18.8387 20.297 19.052C19.8383 19.2653 19.337 19.372 18.793 19.372H17.785L17.705 17.628H18.377C18.857 17.628 19.2677 17.5587 19.609 17.42C19.9397 17.292 20.2117 17.116 20.425 16.892C20.6383 16.668 20.793 16.412 20.889 16.124C20.985 15.836 21.033 15.5427 21.033 15.244V10.812H22.665V12.716C22.665 13.0573 22.7663 13.3133 22.969 13.484C23.1823 13.6547 23.449 13.74 23.769 13.74H23.945C24.1797 13.74 24.297 14.0227 24.297 14.588C24.297 15.196 24.1797 15.5 23.945 15.5H23.769C23.5557 15.5 23.3423 15.468 23.129 15.404C22.9157 15.3293 22.7343 15.1853 22.585 14.972V15.244ZM22.681 8.94H20.873V7.308H22.681V8.94ZM25.1055 4.844L29.9215 3.02L30.1775 4.172L25.1855 6.092L25.1055 4.844ZM27.9055 13.74C28.1935 13.74 28.3908 13.6813 28.4975 13.564C28.6148 13.4467 28.6735 13.3027 28.6735 13.132C28.6735 12.972 28.6415 12.8173 28.5775 12.668C28.5242 12.508 28.4015 12.3373 28.2095 12.156L25.1855 9.132V7.308L30.4815 5.308L30.8495 6.94L26.7695 8.444L29.1215 10.828C29.3882 11.0947 29.6068 11.34 29.7775 11.564C29.9482 11.7773 30.0815 11.9853 30.1775 12.188C30.2735 12.38 30.3375 12.5773 30.3695 12.78C30.4122 12.972 30.4335 13.1747 30.4335 13.388C30.4335 13.7613 30.3695 14.0813 30.2415 14.348C30.1242 14.6147 29.9588 14.8333 29.7455 15.004C29.5428 15.1747 29.2975 15.3027 29.0095 15.388C28.7322 15.4627 28.4282 15.5 28.0975 15.5H23.9375C23.7988 15.5 23.7082 15.4307 23.6655 15.292C23.6122 15.1427 23.5855 14.9293 23.5855 14.652C23.5855 14.3427 23.6122 14.1133 23.6655 13.964C23.7082 13.8147 23.7988 13.74 23.9375 13.74H27.9055ZM42.6356 13.74C42.9343 13.74 43.137 13.6813 43.2436 13.564C43.361 13.4467 43.4196 13.3027 43.4196 13.132C43.4196 12.972 43.3876 12.8173 43.3236 12.668C43.2703 12.508 43.1476 12.3373 42.9556 12.156L39.9316 9.132V7.308L45.2276 5.308L45.5956 6.94L41.5156 8.444L43.8836 10.828C44.1396 11.0947 44.353 11.34 44.5236 11.564C44.6943 11.7773 44.8276 11.9853 44.9236 12.188C45.0196 12.38 45.0836 12.5773 45.1156 12.78C45.1583 12.972 45.1796 13.1747 45.1796 13.388C45.1796 13.7613 45.1156 14.0813 44.9876 14.348C44.8703 14.6147 44.705 14.8333 44.4916 15.004C44.289 15.1747 44.0436 15.3027 43.7556 15.388C43.4783 15.4627 43.1743 15.5 42.8436 15.5H36.8116C36.3743 15.5 35.9956 15.436 35.6756 15.308C35.3663 15.1693 35.1103 14.988 34.9076 14.764C34.7156 14.54 34.5716 14.2787 34.4756 13.98C34.3903 13.6813 34.3476 13.3667 34.3476 13.036V10.764H35.9796V12.62C35.9796 12.972 36.0543 13.2493 36.2036 13.452C36.3636 13.644 36.689 13.74 37.1796 13.74H42.6356ZM47.0709 5.58H48.7029V15.5H47.0709V5.58ZM52.6944 15.244C52.6944 15.82 52.5984 16.3587 52.4064 16.86C52.2144 17.3613 51.9477 17.7987 51.6064 18.172C51.2757 18.5453 50.8757 18.8387 50.4064 19.052C49.9477 19.2653 49.4464 19.372 48.9024 19.372H47.8944L47.8144 17.628H48.4864C48.9664 17.628 49.377 17.5587 49.7184 17.42C50.049 17.292 50.321 17.116 50.5344 16.892C50.7477 16.668 50.9024 16.412 50.9984 16.124C51.0944 15.836 51.1424 15.5427 51.1424 15.244V10.812H52.7744V12.716C52.7744 13.0573 52.8757 13.3133 53.0784 13.484C53.2917 13.6547 53.5584 13.74 53.8784 13.74H54.0544C54.289 13.74 54.4064 14.0227 54.4064 14.588C54.4064 15.196 54.289 15.5 54.0544 15.5H53.8784C53.665 15.5 53.4517 15.468 53.2384 15.404C53.025 15.3293 52.8437 15.1853 52.6944 14.972V15.244ZM55.1669 13.74C55.8815 13.74 56.2389 13.3933 56.2389 12.7V10.812H57.8869V12.7C57.8869 13.0733 57.9989 13.34 58.2229 13.5C58.4575 13.66 58.7295 13.74 59.0389 13.74H59.4549C59.7002 13.74 59.8229 14.0227 59.8229 14.588C59.8229 15.196 59.7002 15.5 59.4549 15.5H58.9909C58.5855 15.5 58.2175 15.436 57.8869 15.308C57.5562 15.1693 57.2682 14.8973 57.0229 14.492C56.7562 14.8973 56.4682 15.1693 56.1589 15.308C55.8495 15.436 55.5189 15.5 55.1669 15.5H54.0469C53.9082 15.5 53.8175 15.4307 53.7749 15.292C53.7215 15.1427 53.6949 14.9293 53.6949 14.652C53.6949 14.3427 53.7215 14.1133 53.7749 13.964C53.8175 13.8147 53.9082 13.74 54.0469 13.74H55.1669ZM58.8309 8.94H57.1669V7.372H58.8309V8.94ZM56.5429 8.94H54.8789V7.372H56.5429V8.94ZM60.1571 13.74C60.8931 13.74 61.2611 13.3933 61.2611 12.7V10.812H62.8771V12.7C62.8771 13.0733 62.9891 13.34 63.2131 13.5C63.4478 13.66 63.7145 13.74 64.0131 13.74C64.8131 13.74 65.2131 13.3933 65.2131 12.7V10.812H66.8451V12.7C66.8451 13.0733 66.9411 13.34 67.1331 13.5C67.3358 13.66 67.5705 13.74 67.8371 13.74C68.1571 13.74 68.4025 13.6547 68.5731 13.484C68.7545 13.3027 68.8451 13.0413 68.8451 12.7V10.812H70.4771V12.812C70.4771 13.6973 70.2478 14.3693 69.7891 14.828C69.3411 15.276 68.7118 15.5 67.9011 15.5C67.5385 15.5 67.1918 15.436 66.8611 15.308C66.5305 15.1693 66.2425 14.8973 65.9971 14.492C65.7411 14.8973 65.4371 15.1693 65.0851 15.308C64.7438 15.436 64.3865 15.5 64.0131 15.5C63.6078 15.5 63.2345 15.436 62.8931 15.308C62.5625 15.1693 62.2745 14.8973 62.0291 14.492C61.7731 14.8973 61.4851 15.1693 61.1651 15.308C60.8451 15.436 60.5038 15.5 60.1411 15.5H59.4531C59.3145 15.5 59.2238 15.4307 59.1811 15.292C59.1278 15.1427 59.1011 14.9293 59.1011 14.652C59.1011 14.3427 59.1278 14.1133 59.1811 13.964C59.2238 13.8147 59.3145 13.74 59.4531 13.74H60.1571ZM66.8611 6.7H65.1651V5.148H66.8611V6.7ZM67.9811 8.94H66.3171V7.372H67.9811V8.94ZM65.6931 8.94H64.0291V7.372H65.6931V8.94ZM72.3365 5.58H73.9685V15.5H72.3365V5.58Z" fill="#263238"/>
<path d="M97.1338 8.1416C98.8005 9.29993 99.9505 11.1416 100.184 13.2666" stroke="#263238" stroke-width="1.5" stroke-linecap="round" stroke-linejoin="round"/>
<path d="M85.9082 13.3081C86.1249 11.1914 87.2582 9.34977 88.9082 8.18311" stroke="#263238" stroke-width="1.5" stroke-linecap="round" stroke-linejoin="round"/>
<path d="M89.8252 20.4502C90.7919 20.9419 91.8919 21.2169 93.0502 21.2169C94.1669 21.2169 95.2169 20.9669 96.1585 20.5085" stroke="#263238" stroke-width="1.5" stroke-linecap="round" stroke-linejoin="round"/>
<path d="M93.0501 9.41654C94.3295 9.41654 95.3667 8.37933 95.3667 7.09987C95.3667 5.82041 94.3295 4.7832 93.0501 4.7832C91.7706 4.7832 90.7334 5.82041 90.7334 7.09987C90.7334 8.37933 91.7706 9.41654 93.0501 9.41654Z" stroke="#263238" stroke-width="1.5" stroke-linecap="round" stroke-linejoin="round"/>
<path d="M87.0247 19.6001C88.3041 19.6001 89.3413 18.5629 89.3413 17.2835C89.3413 16.004 88.3041 14.9668 87.0247 14.9668C85.7452 14.9668 84.708 16.004 84.708 17.2835C84.708 18.5629 85.7452 19.6001 87.0247 19.6001Z" stroke="#263238" stroke-width="1.5" stroke-linecap="round" stroke-linejoin="round"/>
<path d="M98.9749 19.6001C100.254 19.6001 101.292 18.5629 101.292 17.2835C101.292 16.004 100.254 14.9668 98.9749 14.9668C97.6954 14.9668 96.6582 16.004 96.6582 17.2835C96.6582 18.5629 97.6954 19.6001 98.9749 19.6001Z" stroke="#263238" stroke-width="1.5" stroke-linecap="round" stroke-linejoin="round"/>
</svg>
