<?xml version="1.0" standalone="no"?>
<!DOCTYPE svg PUBLIC "-//W3C//DTD SVG 20010904//EN"
 "http://www.w3.org/TR/2001/REC-SVG-20010904/DTD/svg10.dtd">
<svg version="1.0" xmlns="http://www.w3.org/2000/svg"
 width="1024.000000pt" height="1024.000000pt" viewBox="0 0 1024.000000 1024.000000"
 preserveAspectRatio="xMidYMid meet">

<g transform="translate(0.000000,1024.000000) scale(0.100000,-0.100000)"
fill="blue" stroke="none">
<path d="M4815 7543 c-248 -10 -622 -45 -832 -78 -874 -140 -1644 -445 -2140
-846 -107 -87 -304 -280 -378 -370 -188 -228 -323 -508 -387 -799 -20 -92 -22
-133 -22 -330 0 -196 3 -239 23 -330 32 -148 73 -266 140 -405 181 -370 480
-696 879 -959 588 -387 1438 -656 2337 -740 1098 -102 2183 42 3057 407 927
388 1506 978 1659 1693 22 98 24 134 23 344 0 218 -2 244 -27 352 -94 416
-348 802 -727 1109 -540 438 -1426 775 -2350 893 -371 48 -907 73 -1255 59z
m840 -238 c825 -62 1613 -278 2200 -602 598 -330 984 -803 1081 -1324 27 -141
25 -381 -4 -526 -158 -795 -900 -1419 -2085 -1753 -437 -123 -906 -193 -1462
-221 -556 -27 -1297 44 -1810 172 -863 217 -1502 560 -1881 1012 -330 393
-467 835 -398 1294 69 469 365 882 879 1229 560 377 1401 640 2285 714 378 32
816 34 1195 5z"/>
<path d="M2815 6390 l0 -120 178 0 177 0 0 -480 0 -480 135 0 135 0 0 480 0
480 175 0 175 0 0 120 0 120 -487 0 -488 0 0 -120z"/>
<path d="M3960 5910 l0 -600 388 0 387 0 0 115 0 115 -247 0 -248 0 0 130 0
130 208 2 207 3 3 112 3 113 -208 2 -208 3 -3 118 -3 117 246 0 245 0 0 120 0
120 -385 0 -385 0 0 -600z"/>
<path d="M5251 6488 c-19 -51 -180 -514 -287 -827 -63 -184 -117 -338 -120
-342 -3 -5 60 -9 140 -9 l144 0 39 118 39 117 208 5 c242 6 212 21 261 -135
l32 -100 148 -3 c138 -2 147 -1 140 15 -4 10 -96 272 -205 583 -109 311 -201
573 -205 583 -6 15 -24 17 -166 17 -156 0 -160 0 -168 -22z m243 -491 c37
-115 66 -210 64 -212 -7 -6 -279 -12 -283 -6 -6 11 137 443 145 434 4 -4 37
-102 74 -216z"/>
<path d="M6120 5910 l0 -600 125 0 125 0 1 398 c1 340 3 393 14 367 7 -16 73
-195 147 -397 l133 -368 100 0 100 0 84 238 c46 130 108 306 137 391 29 84 55
155 57 157 8 9 14 -226 12 -503 l-2 -283 129 0 128 0 0 600 0 600 -180 0 -180
0 -11 -27 c-6 -16 -69 -194 -140 -397 -71 -203 -131 -371 -133 -373 -1 -2 -22
54 -46 124 -24 71 -85 245 -137 387 -51 142 -93 265 -93 272 0 11 -36 14 -185
14 l-184 0 -1 -600z"/>
<path d="M3452 4398 l3 -603 133 -3 132 -4 0 246 0 246 220 0 c121 0 223 0
228 0 4 0 9 -109 12 -242 l5 -243 125 0 c69 0 126 3 128 8 1 4 2 275 2 602 l0
595 -130 0 -130 0 0 -240 0 -240 -230 0 -230 0 0 240 0 240 -135 0 -135 0 2
-602z"/>
<path d="M4680 4593 c0 -225 5 -439 10 -477 33 -229 206 -355 487 -356 172 0
307 45 386 129 110 117 118 170 115 696 l-3 410 -132 3 -133 3 0 -404 c0 -450
-3 -477 -62 -534 -46 -44 -97 -63 -171 -63 -88 0 -162 37 -197 100 l-25 45 -3
428 -3 427 -134 0 -135 0 0 -407z"/>
<path d="M5902 4399 l3 -604 265 -3 c146 -1 303 2 349 7 144 18 237 76 288
179 25 50 28 68 28 152 0 78 -4 102 -22 136 -27 50 -84 103 -140 128 l-42 18
47 32 c25 17 60 53 76 80 27 42 31 59 34 140 5 117 -17 175 -90 241 -88 79
-130 87 -491 93 l-307 4 2 -603z m551 365 c43 -21 67 -61 67 -113 0 -56 -16
-85 -60 -110 -33 -18 -54 -21 -164 -21 l-126 0 0 130 0 130 125 0 c94 0 133
-4 158 -16z m21 -479 c60 -30 81 -65 81 -135 0 -48 -4 -63 -25 -85 -43 -47
-77 -55 -225 -55 l-135 0 0 151 0 151 133 -4 c106 -3 140 -8 171 -23z"/>
</g>
</svg>
