<svg width="68" height="68" viewBox="0 0 68 68" fill="none" xmlns="http://www.w3.org/2000/svg">
<path opacity="0.4" d="M67.3334 20.0332V44.5332C66.3667 44.0665 65.3 43.7332 64.1 43.5332L63.0667 43.3665L62.2 41.5665C60.3667 37.8332 57.3667 35.6665 54 35.6665C50.6334 35.6665 47.6334 37.8332 45.8 41.5665L44.9 43.3665L43.9 43.5332C39.9334 44.1998 37.0666 46.3998 36.0333 49.5332C35.0333 52.6998 36.0667 56.1665 38.9 59.0332L39.9333 60.0665L39.8334 60.4665C39.1667 63.4332 39.4334 65.6998 40.0667 67.3332H20.0333C7.90001 67.3332 0.666687 60.0998 0.666687 47.9665V20.0332C0.666687 7.89984 7.90001 0.666504 20.0333 0.666504H47.9667C60.1 0.666504 67.3334 7.89984 67.3334 20.0332Z" fill="#2196F3"/>
</svg>
