<svg width="14" height="14" viewBox="0 0 14 14" fill="none" xmlns="http://www.w3.org/2000/svg">
<path d="M12.635 6.0898L12.0633 8.52813C11.5733 10.634 10.605 11.4856 8.785 11.3106C8.49334 11.2873 8.17834 11.2348 7.84 11.1531L6.86 10.9198C4.4275 10.3423 3.675 9.14063 4.24667 6.7023L4.81834 4.25813C4.935 3.7623 5.075 3.33063 5.25 2.9748C5.9325 1.56313 7.09334 1.18397 9.04167 1.6448L10.0158 1.8723C12.46 2.44397 13.2067 3.65147 12.635 6.0898Z" stroke="#263238" stroke-linecap="round" stroke-linejoin="round"/>
<path d="M8.78499 11.3109C8.42332 11.5559 7.96832 11.7601 7.41415 11.9409L6.49249 12.2443C4.17665 12.9909 2.95749 12.3668 2.20499 10.0509L1.45832 7.74676C0.711652 5.43093 1.32999 4.20593 3.64582 3.45926L4.56749 3.15593C4.80665 3.0801 5.03415 3.01593 5.24999 2.9751C5.07499 3.33093 4.93499 3.7626 4.81832 4.25843L4.24665 6.7026C3.67499 9.14093 4.42749 10.3426 6.85999 10.9201L7.83999 11.1534C8.17832 11.2351 8.49332 11.2876 8.78499 11.3109Z" stroke="#263238" stroke-linecap="round" stroke-linejoin="round"/>
<path d="M7.37332 4.97607L10.2025 5.69357" stroke="#263238" stroke-linecap="round" stroke-linejoin="round"/>
<path d="M6.80167 7.2334L8.49333 7.66507" stroke="#263238" stroke-linecap="round" stroke-linejoin="round"/>
</svg>
